<?xml version="1.0" encoding="UTF-8" standalone="no"?>
<svg width="97px" height="96px" viewBox="0 0 97 96" version="1.1" xmlns="http://www.w3.org/2000/svg" xmlns:xlink="http://www.w3.org/1999/xlink" xmlns:sketch="http://www.bohemiancoding.com/sketch/ns">
    <!-- Generator: Sketch 3.3.3 (12081) - http://www.bohemiancoding.com/sketch -->
    <title>selected_bean_footer</title>
    <desc>Created with Sketch.</desc>
    <defs></defs>
    <g id="Page-1" stroke="none" stroke-width="1" fill="none" fill-rule="evenodd" sketch:type="MSPage">
        <g id="selected_bean_footer" sketch:type="MSArtboardGroup" transform="translate(0.500000, 0.000000)" stroke="#522E1F" stroke-width="1.75">
            <g id="Imported-Layers" sketch:type="MSLayerGroup" transform="translate(3.000000, 1.000000)">
                <path d="M1.29879374,30.0774555 C-0.326266205,34.1997534 -1.25908971,37.5440334 3.71543702,40.1549817 C5.18529237,40.9266158 9.39776055,42.3481942 13.5471893,40.5495764 C15.3541858,39.7667707 17.6587147,37.5931084 19.4485548,34.2496264 C24.3532594,24.6804052 34.4375683,18.8333015 45.1303271,19.3436014 C52.4329228,19.6891212 59.1769415,22.8586464 64.1151607,28.2656713 C69.0434053,33.6906504 71.5697691,40.6995942 71.23183,48.0009929 C70.8891032,55.3027906 67.719977,62.0456124 62.3109572,66.9874225 C58.3538384,70.5770774 53.5540665,72.8911819 48.4215423,73.7501934 C37.8560593,75.5117057 27.150932,70.9082337 21.139846,61.9969364 C18.6849003,58.347434 16.5615099,56.8360844 13.6261881,56.1757666 C9.37302357,55.367027 5.94814889,57.1524783 4.63589204,58.056974 C0.16049371,61.1411167 1.50307331,64.2787233 3.6069135,68.1751965 C11.2817608,82.5078821 25.8382761,91.4227702 41.6316405,92.5 C42.5917358,92.5 43.0483721,92.4999991 43.7689953,92.5 C67.9282464,92.2422824 88.1383584,73.1704703 88.569458,49.0172297 C90.4488721,23.6897291 70.9768796,1.31099137 45.5864897,0.0366379594 C26.3186523,-0.771303702 8.40469052,11.8626601 1.29879374,30.0774555 Z M2.55211159,28.122073 C4.85276395,23.3028369 7.01172103,22.9687554 8.79348927,22.9687554 C9.56223605,22.9687554 10.3780815,23.1926738 11.4845021,23.4872403 C12.8607425,23.8544506 13.9735494,25.0862017 14.2505536,26.5043519 C14.7969785,29.3035322 13.9200644,32.2659614 11.2597854,35.2547339 C10.3545322,36.1607854 9.29560944,36.3040773 8.33527468,36.3040773 C6.6461073,36.3040773 4.71705579,35.4475193 2.64311588,34.516721 C1.73107725,34.108 1.49478541,33.65697 1.34869957,33.2594249 C1.14513734,32.7058155 0.904055794,31.5770429 2.55211159,28.122073" id="Stroke-1" sketch:type="MSShapeGroup"></path>
                <path d="M5.06390987,69.9066137 C3.02469528,66.7246567 3.17118026,65.6797039 3.20790129,65.178382 C3.23783691,64.764073 3.47652361,64.1094807 4.3422618,63.5957854 C6.57306438,62.2722318 8.60908584,61.1191116 10.1868927,61.1191116 C10.8977639,61.1191116 12.1067639,61.2208927 12.8739142,61.8914506 C16.2530472,64.8446996 17.1790558,67.8398584 16.8126438,70.5248841 C16.6206567,71.9322575 15.6810773,73.0738026 14.3651073,73.593485 C12.9884678,74.1383133 12.1019742,74.3526524 11.1707768,74.3526524 C9.71590558,74.3526524 7.70582833,74.0265536 5.06390987,69.9066137" id="Stroke-2" sketch:type="MSShapeGroup"></path>
                <path d="M12.3897554,47.6540687 C11.8768584,45.6751245 11.2701631,44.4062532 10.4223863,43.5373219 C9.47801717,42.5702017 8.26462661,42.1770472 6.81654077,42.3430901 L5.89651931,42.5083348 C5.89572103,42.5083348 5.89572103,42.5083348 5.89492275,42.509133 C4.03013305,42.9924936 2.86663519,44.0346524 2.43835622,45.6084678 C2.11944206,46.7795494 2.20525751,48.1833305 2.71895279,50.1622747 C3.36396567,52.6553133 4.51030043,55.5179571 7.67190129,55.5179571 C8.15286695,55.5179571 8.67175107,55.4457124 9.21378541,55.306412 L10.100279,55.0030644 C11.4469828,54.4442661 12.315515,53.511073 12.6707511,52.206279 C12.9896652,51.0351974 12.9030515,49.6322146 12.3897554,47.6540687 M5.89651931,42.5083348 L9.21378541,55.306412" id="Stroke-3" sketch:type="MSShapeGroup"></path>
            </g>
        </g>
    </g>
</svg>